<svg width="50" height="50" viewBox="0 0 50 50" fill="none" xmlns="http://www.w3.org/2000/svg">
<g clip-path="url(#clip0_60_4)">
<mask id="mask0_60_4" style="mask-type:luminance" maskUnits="userSpaceOnUse" x="0" y="0" width="50" height="50">
<path d="M50 0H0V50H50V0Z" fill="white"/>
</mask>
<g mask="url(#mask0_60_4)">
<path d="M48.2143 24.7858C48.2179 24.2901 48.1179 23.7991 47.9211 23.3441C47.7243 22.8891 47.435 22.48 47.0714 22.1429L25.0001 1.78577L2.92864 22.1429C2.56516 22.48 2.27583 22.8891 2.07907 23.3441C1.88231 23.7991 1.78243 24.2901 1.78579 24.7858V44.6429C1.78579 45.5901 2.16206 46.4986 2.83183 47.1683C3.50161 47.8379 4.41003 48.2143 5.35721 48.2143H44.6429C45.59 48.2143 46.4986 47.8379 47.1682 47.1683C47.8382 46.4986 48.2143 45.5901 48.2143 44.6429V24.7858Z" stroke="black" stroke-width="3.5" stroke-linecap="round" stroke-linejoin="round"/>
<path d="M25 48.2143V33.9286" stroke="black" stroke-width="3" stroke-linecap="round" stroke-linejoin="round"/>
</g>
</g>
<defs>
<clipPath id="clip0_60_4">
<rect width="50" height="50" fill="white"/>
</clipPath>
</defs>
</svg>
