<svg width="50" height="50" viewBox="0 0 50 50" fill="none" xmlns="http://www.w3.org/2000/svg">
<path d="M18.6787 8.03577L20.2144 4.07148C20.4734 3.40028 20.9291 2.82295 21.5218 2.4151C22.1144 2.00725 22.8164 1.78789 23.5359 1.78577H26.4644C27.1839 1.78789 27.8859 2.00725 28.4785 2.4151C29.0712 2.82295 29.5269 3.40028 29.7859 4.07148L31.3216 8.03577L36.5357 11.0358L40.75 10.3929C41.4518 10.2977 42.1661 10.4132 42.8022 10.7248C43.4379 11.0364 43.9668 11.53 44.3214 12.1429L45.75 14.6429C46.1161 15.2656 46.285 15.9846 46.2339 16.7051C46.1829 17.4256 45.9147 18.1137 45.4643 18.6786L42.8572 22.0001V28.0001L45.5357 31.3215C45.9861 31.8864 46.2543 32.5745 46.3054 33.295C46.3564 34.0155 46.1875 34.7345 45.8214 35.3572L44.3929 37.8572C44.0382 38.4701 43.5093 38.9636 42.8736 39.2754C42.2375 39.5868 41.5232 39.7026 40.8214 39.6072L36.6072 38.9643L31.393 41.9643L29.8573 45.9286C29.5983 46.5997 29.1427 47.1772 28.55 47.5851C27.9573 47.9929 27.2553 48.2122 26.5359 48.2143H23.5359C22.8164 48.2122 22.1144 47.9929 21.5218 47.5851C20.9291 47.1772 20.4734 46.5997 20.2144 45.9286L18.6787 41.9643L13.4644 38.9643L9.25016 39.6072C8.54844 39.7026 7.83423 39.5868 7.1983 39.2754C6.56241 38.9636 6.03348 38.4701 5.67873 37.8572L4.25016 35.3572C3.88408 34.7345 3.71544 34.0155 3.76644 33.295C3.81744 32.5745 4.08573 31.8864 4.53587 31.3215L7.14301 28.0001V22.0001L4.46444 18.6786C4.0143 18.1137 3.74601 17.4256 3.69501 16.7051C3.64401 15.9846 3.81266 15.2656 4.17873 14.6429L5.6073 12.1429C5.96205 11.53 6.49098 11.0364 7.12687 10.7248C7.7628 10.4132 8.47701 10.2977 9.17873 10.3929L13.393 11.0358L18.6787 8.03577ZM17.8573 25.0001C17.8573 26.4128 18.2762 27.7938 19.0611 28.9684C19.846 30.1431 20.9615 31.0586 22.2667 31.5992C23.5719 32.1398 25.0081 32.2813 26.3937 32.0057C27.7792 31.7301 29.052 31.0498 30.0509 30.0508C31.0499 29.0519 31.7302 27.7791 32.0058 26.3936C32.2814 25.008 32.1399 23.5718 31.5993 22.2666C31.0587 20.9614 30.1432 19.8458 28.9685 19.061C27.7939 18.2761 26.4129 17.8572 25.0002 17.8572C23.1058 17.8572 21.2889 18.6097 19.9494 19.9493C18.6099 21.2888 17.8573 23.1057 17.8573 25.0001Z" stroke="black" stroke-width="3.5" stroke-linecap="round" stroke-linejoin="round"/>
</svg>
